name rise45.9887peak57.8056fall74.9286.mot
datacolumns 19
datarows 30
range 7.28164500000000 7.32997700000000
endheader
time	ground_force1_vx	ground_force1_vy	ground_force1_vz	ground_force1_px	ground_force1_py	ground_force1_pz	ground_force2_vx	ground_force2_vy	ground_force2_vz	ground_force2_px	ground_force2_py	ground_force2_pz	ground_torque1_x	ground_torque1_y	ground_torque1_z	ground_torque2_x	ground_torque2_y	ground_torque2_z	
7.28164500000000	-60.86478000000000	818.13526300000001	53.52280400000000	0.12983600000000	0.00000000000000	0.09303100000000	-0.87274400000000	3.86316900000000	0.56224000000000	0.00000000000000	0.00000000000000	0.00000000000000	0.00000000000000	23.60197700000000	0.00000000000000	0.00000000000000	0.15467400000000	0.00000000000000	
7.28330700000000	-61.33039100000000	817.38320699999997	53.37906300000000	0.12905600000000	0.00000000000000	0.09292900000000	-1.43039600000000	7.29591600000000	0.98151400000000	0.00000000000000	0.00000000000000	0.00000000000000	0.00000000000000	23.52011000000000	0.00000000000000	0.00000000000000	0.27989300000000	0.00000000000000	
7.28499000000000	-61.80281200000000	816.51172399999996	53.22043100000000	0.12829500000000	0.00000000000000	0.09282700000000	-2.06755600000000	11.42232700000000	1.47292800000000	0.00000000000000	0.00000000000000	0.00000000000000	0.00000000000000	23.43739000000000	0.00000000000000	0.00000000000000	0.42847400000000	0.00000000000000	
7.28663900000000	-62.28253100000000	815.51810399999999	53.04664000000000	0.12755400000000	0.00000000000000	0.09272300000000	-2.76658200000000	16.19242100000000	2.02665500000000	0.00000000000000	0.00000000000000	0.00000000000000	0.00000000000000	23.35391400000000	0.00000000000000	0.00000000000000	0.59800800000000	0.00000000000000	
7.28831000000000	-62.76999900000000	814.39967799999999	52.85743100000000	0.12683100000000	0.00000000000000	0.09261800000000	-3.50485900000000	21.52483000000000	2.62902700000000	0.00000000000000	0.00000000000000	0.00000000000000	0.00000000000000	23.26977400000000	0.00000000000000	0.00000000000000	0.78493100000000	0.00000000000000	
7.28998500000000	-63.26562300000000	813.15381800000000	52.65254900000000	0.12612800000000	0.00000000000000	0.09251300000000	-4.25624300000000	27.31280800000000	3.26343800000000	0.33349500000000	0.00000000000000	-0.08091700000000	0.00000000000000	23.18505000000000	0.00000000000000	0.00000000000000	1.72871100000000	0.00000000000000	
7.29164500000000	-63.76976500000000	811.77793699999995	52.43175000000000	0.12544300000000	0.00000000000000	0.09240600000000	-4.99294000000000	33.43302100000000	3.91158300000000	0.34152000000000	0.00000000000000	-0.08090000000000	0.00000000000000	23.09980900000000	0.00000000000000	0.00000000000000	2.12444700000000	0.00000000000000	
7.29331000000000	-64.28273600000000	810.26949400000001	52.19479500000000	0.12477500000000	0.00000000000000	0.09229800000000	-5.68755500000000	39.75597400000000	4.55485700000000	0.34890500000000	0.00000000000000	-0.08089300000000	0.00000000000000	23.01411100000000	0.00000000000000	0.00000000000000	2.53201100000000	0.00000000000000	
7.29497700000000	-64.80479200000001	808.62599200000000	51.94145500000000	0.12412500000000	0.00000000000000	0.09218900000000	-6.31505400000000	46.15657900000000	5.17574600000000	0.35571800000000	0.00000000000000	-0.08089600000000	0.00000000000000	22.92800200000000	0.00000000000000	0.00000000000000	2.94122100000000	0.00000000000000	
7.29664100000000	-65.33613099999999	806.84498399999995	51.67150800000000	0.12349200000000	0.00000000000000	0.09207900000000	-6.85437700000000	52.52348500000000	5.75899900000000	0.36202000000000	0.00000000000000	-0.08090900000000	0.00000000000000	22.84151700000000	0.00000000000000	0.00000000000000	3.34265800000000	0.00000000000000	
7.29830700000000	-65.87688799999999	804.92406900000003	51.38474400000000	0.12287400000000	0.00000000000000	0.09196800000000	-7.28954600000000	58.76617300000000	6.29248600000000	0.36785900000000	0.00000000000000	-0.08093300000000	0.00000000000000	22.75467700000000	0.00000000000000	0.00000000000000	3.72827400000000	0.00000000000000	
7.29997500000000	-66.42713200000000	802.86090100000001	51.08096000000000	0.12227200000000	0.00000000000000	0.09185600000000	-7.61021200000000	64.81933800000000	6.76768200000000	0.37327600000000	0.00000000000000	-0.08096800000000	0.00000000000000	22.66749300000000	0.00000000000000	0.00000000000000	4.09180000000000	0.00000000000000	
7.30163900000000	-66.98685999999999	800.65318600000001	50.75996500000000	0.12168400000000	0.00000000000000	0.09174300000000	-7.81165400000000	70.64453000000000	7.17976900000000	0.37830700000000	0.00000000000000	-0.08101300000000	0.00000000000000	22.57996200000000	0.00000000000000	0.00000000000000	4.42894900000000	0.00000000000000	
7.30330700000000	-67.55599800000000	798.29868799999997	50.42157900000000	0.12110900000000	0.00000000000000	0.09162900000000	-7.89432900000000	76.22931300000000	7.52743500000000	0.38298300000000	0.00000000000000	-0.08106900000000	0.00000000000000	22.49206700000000	0.00000000000000	0.00000000000000	4.73741600000000	0.00000000000000	
7.30497300000000	-68.13439200000001	795.79522699999995	50.06563300000000	0.12054600000000	0.00000000000000	0.09151400000000	-7.86307100000000	81.58443200000001	7.81240100000000	0.38733000000000	0.00000000000000	-0.08113500000000	0.00000000000000	22.40378100000000	0.00000000000000	0.00000000000000	5.01671100000000	0.00000000000000	
7.30664300000000	-68.72180899999999	793.14068999999995	49.69197200000000	0.11999500000000	0.00000000000000	0.09139800000000	-7.72606600000000	86.73956099999999	8.03879100000000	0.39137200000000	0.00000000000000	-0.08121200000000	0.00000000000000	22.31506200000000	0.00000000000000	0.00000000000000	5.26786900000000	0.00000000000000	
7.30831200000000	-69.31793200000000	790.33302300000003	49.30045300000000	0.11945400000000	0.00000000000000	0.09128000000000	-7.49374000000000	91.73823000000000	8.21240900000000	0.39513000000000	0.00000000000000	-0.08129900000000	0.00000000000000	22.22585500000000	0.00000000000000	0.00000000000000	5.49307800000000	0.00000000000000	
7.30998200000000	-69.92235800000000	787.37024599999995	48.89094900000000	0.11892300000000	0.00000000000000	0.09116200000000	-7.17764900000000	96.63250499999999	8.34000700000000	0.39862100000000	0.00000000000000	-0.08139500000000	0.00000000000000	22.13609200000000	0.00000000000000	0.00000000000000	5.69527600000000	0.00000000000000	
7.31163700000000	-70.53459599999999	784.25044800000001	48.46334800000000	0.11839900000000	0.00000000000000	0.09104200000000	-6.78947700000000	101.47787800000000	8.42859400000000	0.40186300000000	0.00000000000000	-0.08150100000000	0.00000000000000	22.04569400000000	0.00000000000000	0.00000000000000	5.87775700000000	0.00000000000000	
7.31330400000000	-71.15406100000000	780.97179400000005	48.01755300000000	0.11788200000000	0.00000000000000	0.09092100000000	-6.34018500000000	106.32875799999999	8.48485400000000	0.40487000000000	0.00000000000000	-0.08161700000000	0.00000000000000	21.95456900000000	0.00000000000000	0.00000000000000	6.04380400000000	0.00000000000000	
7.31497700000000	-71.78008000000000	777.53252799999996	47.55348800000000	0.11737100000000	0.00000000000000	0.09080000000000	-5.83937800000000	111.23479100000000	8.51468000000000	0.40765600000000	0.00000000000000	-0.08174200000000	0.00000000000000	21.86261200000000	0.00000000000000	0.00000000000000	6.19640200000000	0.00000000000000	
7.31663900000000	-72.41188200000001	773.93097799999998	47.07109200000000	0.11686400000000	0.00000000000000	0.09067700000000	-5.29487500000000	116.23817699999999	8.52285000000000	0.41023300000000	0.00000000000000	-0.08187600000000	0.00000000000000	21.76970700000000	0.00000000000000	0.00000000000000	6.33801200000000	0.00000000000000	
7.31830500000000	-73.04860100000001	770.16556000000003	46.57032600000000	0.11636000000000	0.00000000000000	0.09055300000000	-4.71249300000000	121.37198200000000	8.51284600000000	0.41261300000000	0.00000000000000	-0.08201800000000	0.00000000000000	21.67572700000000	0.00000000000000	0.00000000000000	6.47043100000000	0.00000000000000	
7.31998400000000	-73.68927600000001	766.23478100000000	46.05117100000000	0.11585800000000	0.00000000000000	0.09042800000000	-4.09602200000000	126.65941700000000	8.48679900000000	0.41480500000000	0.00000000000000	-0.08216900000000	0.00000000000000	21.58053200000000	0.00000000000000	0.00000000000000	6.59473000000000	0.00000000000000	
7.32163900000000	-74.33284900000000	762.13724300000001	45.51363400000000	0.11535700000000	0.00000000000000	0.09030200000000	-3.44735600000000	132.11395300000001	8.44554600000000	0.41682000000000	0.00000000000000	-0.08232800000000	0.00000000000000	21.48397500000000	0.00000000000000	0.00000000000000	6.71125800000000	0.00000000000000	
7.32331000000000	-74.97816400000001	757.87165300000004	44.95774000000000	0.11485500000000	0.00000000000000	0.09017400000000	-2.76674400000000	137.74010899999999	8.38877600000000	0.41866600000000	0.00000000000000	-0.08249400000000	0.00000000000000	21.38589700000000	0.00000000000000	0.00000000000000	6.81970400000000	0.00000000000000	
7.32497600000000	-75.62397000000000	753.43681900000001	44.38354500000000	0.11435100000000	0.00000000000000	0.09004600000000	-2.05311800000000	143.53474299999999	8.31522500000000	0.42035300000000	0.00000000000000	-0.08266800000000	0.00000000000000	21.28613000000000	0.00000000000000	0.00000000000000	6.91920200000000	0.00000000000000	
7.32664400000000	-76.26892200000000	748.83166400000005	43.79112900000000	0.11384500000000	0.00000000000000	0.08991600000000	-1.30446300000000	149.48863100000000	8.22292200000000	0.42188700000000	0.00000000000000	-0.08284800000000	0.00000000000000	21.18449800000000	0.00000000000000	0.00000000000000	7.00845500000000	0.00000000000000	
7.32830800000000	-76.91158000000000	744.05522499999995	43.18059800000000	0.11333400000000	0.00000000000000	0.08978500000000	-0.51818900000000	155.58819500000001	8.10942900000000	0.42327600000000	0.00000000000000	-0.08303600000000	0.00000000000000	21.08081800000000	0.00000000000000	0.00000000000000	7.08588300000000	0.00000000000000	
7.32997700000000	-77.55041300000001	739.10666100000003	42.55209300000000	0.11281700000000	0.00000000000000	0.08965300000000	0.30852200000000	161.81719899999999	7.97208100000000	0.42452700000000	0.00000000000000	-0.08322900000000	0.00000000000000	20.97489900000000	0.00000000000000	0.00000000000000	7.14975300000000	0.00000000000000	
